# xmcd CD database file
#
# Track frame offsets:
#	150
#	13142
#	28778
#	42143
#	54692
#	69164
#	83124
#	103391
#	122526
#	142039
#	160394
#	171112
#	185684
#	198583
#	211616
#	224078
#	237164
#	250290
#	263500
#	278093
#	291237
#	303304
#	314651
#	328573
#
# Disc length: 4558 seconds
#
# Revision: 2
# Processed by: cddbd v1.5.1PL0 Copyright (c) Steve Scherf et al.
# Submitted via: CDex 1.51
#
DISCID=6c11cc18
DTITLE=Various Artist - Harlem Jazz - The 40s
DYEAR=1999
DGENRE=Jazz
TTITLE0=It's Time To Jump and Shout -- Jimmie Lunceford and His orchestra
TTITLE1=Do It If You Want To -- The Hot Lips Page Trio
TTITLE2=Norfolk Ferry -- Al Cooper and His Savoy Sultans
TTITLE3=McGhee Special -- Andy Kirk and His Clouds Of Joy 
TTITLE4=Just You, Just Me -- Lester Young Quartet
TTITLE5=Boogin' A Plenty -- Sammy Price and His Blusicians
TTITLE6=Make Believe -- Coleman Hawkins' All America Four
TTITLE7=You're Driving Me Crazy -- Keynoters
TTITLE8=The Call Of The Blues -- Sidney De Paris's Blue Note Jazzmen
TTITLE9=That's My Weakness Now -- Pete Brown's All Star Quintet
TTITLE10=The Beat -- Crazy Cole and His All American Five
TTITLE11=Dolores -- The Ike Quebec Swingtet
TTITLE12=Voice Of The Turtle -- Slam Stewart Quintet 
TTITLE13=Four O'Clock Blues -- Herbie Fields
TTITLE14=Continental Blues -- Edmond Hall and His Cafe Society Orchestra 
TTITLE15=All My Life -- The JC Heard Quintet 
TTITLE16=Dreamer's Blues -- Rex Stewart And His Orchestra
TTITLE17=Jacquet In The Box -- The Illinois Jacquet Sextet 
TTITLE18=Hardee's Party -- The John Hardy Sextet 
TTITLE19=The Jeep Is Jumpin' -- Bill De Arango
TTITLE20=Park And Tilford Blues -- Ben Webster's Quintet  
TTITLE21=Tippin' In -- Bostic, Earl
TTITLE22=Flying Home Pt. 1 -- The Tiny Grimes Swingtet 
TTITLE23=Flying Home Pt. 2 -- The Tiny Grimes Swingtet 
EXTD=YEAR: 1999
EXTT0=
EXTT1=
EXTT2=
EXTT3=
EXTT4=
EXTT5=
EXTT6=
EXTT7=
EXTT8=
EXTT9=
EXTT10=
EXTT11=
EXTT12=
EXTT13=
EXTT14=
EXTT15=
EXTT16=
EXTT17=
EXTT18=
EXTT19=
EXTT20=
EXTT21=
EXTT22=
EXTT23=
PLAYORDER=
